<svg xmlns="http://www.w3.org/2000/svg" width="126.4" height="90.2" viewBox="0 0 126.4 90.2"><path d="M0 70.3v-1.8h11.2V67l-.8-13-.7-11.6 1-5.3 1-5.3v-28h-.5Q9.7 3.9 9 4.9c-.3.6-.3.9-.3 9.4v8.8l.7.9a6 6 0 0 1 1.7 4.1c.2 2.2-.3 4-1.7 6.8-1 2.1-2.7 4.6-3 4.6s-2-2.7-3-4.5c-1.2-2.5-1.6-4-1.7-6.1v-2l1-1.3 1.6-1.9.7-.5v-8.4c0-5 .1-8.8.2-9.4A6 6 0 0 1 9 .7l1.2-.6h40.6L91.4 0l.9.4c.5.2 3.7 2.9 8.2 6.9l7.4 6.4 7.6 2.4c7.1 2.3 7.6 2.5 8.2 3q.7.7.6 1.6 0 2.3-2 3.2-1 .5-.9.6l.8 1.7.8 1.5-2.5 11-2.9 11.7a5 5 0 0 1-2.6 2.2c-1 .3-5.1 0-6-.4-1.2-.5-1.7-1.3-5-8.6l-3.4-7.2-3.5.5-3.5.6c-.3 0-4.7 6.3-4.7 6.7l2.2 12.3 2.3 12h33v3.6H0ZM16.1 67l.5-10.5.4-9 1-1 4.8-5.8 3.9-4.6 2.1.6 10 2.8 7.8 2.2h25v.6l.9 13.4.8 12.7.7.1h.6l.1-1 .8-13.4.7-12.4h10.2L89 38l2.8-3.6 5.3-1c4.5-.7 5.3-.8 5.4-.6l4 8.3 3.6 8h1.1c1.5.2 3 .2 3.1 0l4.8-21.1-1.8-2.6-1.6-2.3 1.5-.8 1.3-1-6.3-2c-4.4-1.3-6.3-2-6.6-2.2l-14-12.8-.8-.7H15.1v28.9l-1 5.1-1 5L14 55l.7 12.9q-.2.7.7.6h.7zm5.8 1c-.3-1.3-2-6.4-2.1-6.1l-.2 3.4v3.2H22Zm6 0-3.7-23c-.1-.5-.1-.5-2 1.6-2 2.1-2 2.2-2 3s.7 3.5 2.6 9.7l2.7 9q0 .3 1.3.2H28zm41.7-.3c-.1-.5-.5-5.7-.8-11.7L68 45.3H46L41.8 44l-9-2.6c-4.7-1.3-5-1.4-5.2-1-.3.2-.2 1.4 1.5 13.6l2 14v.4h38.5Zm14.6.7-5.2-15-.3 4.4-.2 7.5-.1 3.2h3zm5.4-.5-2-11.6-2-11h-5.4l.2.4 7.4 22.5 1 .2q1.2.1.8-.5M7 31.4c.4-.8.5-1.4.5-2.6 0-1.5 0-1.6-.5-2.1l-.6-.6-.5.8q-.7.8-.6 1.8c0 1.3 1 4.8 1.2 4.1z" style="display:inline;fill:#424143;stroke-width:.180349"/><path d="M20.4 88.4v-1.8h73v3.6h-73Zm21.4-9.1v-1.7h73.4V81H41.8ZM15.2 18V3.6h33.6c18.6 0 33.6 0 33.4.2L48.7 17.4 15.3 30.9v.7z" style="display:inline;fill:#66ba44;stroke-width:.180349"/></svg>
