<svg xmlns="http://www.w3.org/2000/svg" width="126.4" height="102.1" viewBox="0 0 126.4 102.1"><path d="m96.7 80.7-1.5-.2h-1.5V68.3l-1.2-.9q-1.7-1.2-1.6-.6L88.3 80c0 .5-.1.5-3.7.5h-3.5v-1.2L82 69c0-.5-.3-.8-3.5-3.1l-3.5-2.6h-2q-3.6 0-7-1.1-1.3-.5-1.6-.4L63 65l-1.2 3-.3 6.2-.4 6.3-3.4.1c-3.2 0-3.3 0-3.4-.3l-.5-6.2c-.4-5.5-.5-5.7-1-7l-.7-1.2-1.7 7-1.8 7.5c-.1.3-.5.4-3.5.4q-3.3 0-3.3-.3L45.2 61c.1-.4 0-.5-1.6-1.4a14 14 0 0 1-5.7-5.4q-.7-1.5-1.4-1.7c-1-.4-2.6-2.2-3.1-3.4q-1.4-3-.4-6l.3-1-.7-.9a8 8 0 0 1-1.5-6.5l.2-.8h-2.7c-2.9 0-3.9-.3-4.7-1.3a6 6 0 0 1-1-4c.2-1.9.8-2.6 5.5-6.7 6.6-5.9 6.4-5.8 16-5.7 6 0 6.4 0 6.8.4q1 .8-.3 2.9l-.8 1.2 1.8 3.1 2 3.3q0 .3 1.5-.4c2.5-1.1 5.7-1 7.8.4l.7.5.8-.6c3.6-2.9 9.3-2.8 12.4 0 .9.8.9.8 1.5.5A19 19 0 0 1 103 40.8q1.2 5-1.2 6.4l-.7.4v9l1 1.4.8 1.4-1.1 10.5-1.2 10.5H99q-1.4 0-1.7.3t-.6 0m-51.2-.8c2-8 4.4-18.4 4.3-18.7q-.2-.3-.8-.3c-.5 0-.6 0-.8 1l-3.5 18.3c0 .5.6.3.8-.3m52-.2 1.2-10 1-9.2-.8-1.3L98 58V45h1.2c1.4 0 1.3 0 1.3-1.3a15 15 0 0 0-4-8.6c-3.3-3.6-7.9-5.5-12.8-5.3-2 0-2.5.1-3.5.6-.7.3-1.6.9-1.9 1.3l-.6.7-.9-1.2a7 7 0 0 0-5.8-3.1q-3.9 0-6.4 3.6l-.5.6-1.1-1.2c-2-1.9-3.4-2.3-5.5-1.7-1 .3-1.4.6-2.6 1.7l-1.4 1.4-3.1-5.3-3.4-5.8q-.4-.4.3-1.4l.5-1-5.5.1-5.4.1-1.2.6c-1.1.5-9 7.3-9.5 8.1-.3.5-.3 1.8-.1 2.6v.4h11.3L36 32.5l-1.7 2.3c-1 2.2 0 4.7 2.5 6l1 .5-.6.6c-1.6 1.7-2 4-1.2 6a4 4 0 0 0 3 2.5q.6-.1 1 1.1a10 10 0 0 0 4.8 5.5q2 1 5.5 1h1.3l2.2 4.7 2.3 4.8.5 6c.5 6.8.5 6.8 1 6.8s.5-.6.8-7.8l.2-5 2.1-5 2-5 .7.4c1.5 1.3 4.6 2.3 8 2.7q4.4.6 11-1.6l2-.7 6 4.5 6.2 4.5v6.6c0 6.3 0 6.6.4 6.6q.4 0 .5-.8m-10.7-7.3c.9-4.3 1.6-7.9 1.5-8l-2.2-1.8-2.1-1.5-2.4.8c-2.1.7-2.3.8-2 1 .2.3 4.3 3.2 5.5 4l-.3 6.4c-.6 7.7-.6 7 0 7 .4-.1.5-.7 2-8" style="display:inline;fill:#8c8c8c;fill-opacity:1;stroke-width:.204212"/></svg>