<svg xmlns="http://www.w3.org/2000/svg" width="100.2" height="100" viewBox="0 0 100.2 100"><path d="m6.8 94.6 1-3.2L9 88.5h.7c5.2-.4 79.9-4 80-4l3 8.1.8 2.2H50c-34.5 0-43.3 0-43.3-.2m40.4-48c-5.1-1.2-9.2-4.3-11.5-9a16.2 16.2 0 0 1 29-14.1 13 13 0 0 1 1.6 7.1c0 2.2 0 3-.5 4.3a16 16 0 0 1-11.2 11.3c-2 .5-5.6.7-7.4.3m5.8-6c3.7-1 6.6-3.9 7.5-7.5.6-2.3.3-5.2-.8-7.5-.9-1.7-2.9-3.7-4.8-4.6a10 10 0 0 0-12.2 2c-6.6 6.7-2 18 7.4 18q1.8 0 3-.3" style="display:inline;fill:#67bb44;stroke-width:.2"/><path d="M1.6 99.6Q.1 98.8.1 97.3c0-1 11-31 11.6-31.7.9-1 1.2-1 8.7-1 6.4 0 7.2 0 7.8.4 1.4.7 2 2.3 1.3 3.7s-.7 1.4-7.7 1.5l-6.3.1-2.2 6.2a388 388 0 0 0-6.5 18.2h86.6l-1.8-4.8-4.4-12.2-2.7-7.5h-6c-6 0-6 0-6.7-.5-1.9-1.2-1.8-3.7.2-4.7.6-.4 1.4-.4 7.8-.4 7.8 0 8 0 8.8 1.2.4.5 11.1 29.5 11.5 31q.1.7-.2 1.6c-.8 1.8 4.2 1.6-49.7 1.6-45.2 0-48 0-48.6-.4m47-18.8q-.7-.4-1.3-1.1L24.6 47.4c-2-2.9-3.6-6.8-4.4-10.8a30.6 30.6 0 1 1 57.2 8q-1.1 2.2-12.7 18.6l-12 17c-1 1-2.6 1.2-4 .6M60.8 59c5.8-8.3 11-16 11.5-17 3.6-6.7 3.9-14.5.8-21.5A25 25 0 0 0 42 6.8a24.9 24.9 0 0 0-16.7 21.7q-.8 8.9 4.2 16.4L50 74c.1 0 5-6.8 10.7-15" style="display:inline;fill:#414042;stroke-width:.2"/></svg>