<svg xmlns="http://www.w3.org/2000/svg" width="254.1" height="215" viewBox="0 0 254.1 215"><path d="M4 214.1c-3-1.8-3-8 0-10 .8-.7 13-.8 122.7-.8 93.5 0 122 .2 122.9.6q2.4 1 2.3 5.4c0 2.3-.1 2.8-1.2 4l-1.3 1.4-122 .1C8.1 215 5.4 215 4 214.1M64.6 183q-2.5-1.4-2.5-5c0-2.8.7-4.3 2.4-5.3 1.1-.7 8-.7 92.9-.7H249l1.5 1.4c1.3 1.4 1.4 1.7 1.4 4.4s0 3-1.4 4.3l-1.5 1.5h-91.7c-72.7 0-92-.2-92.7-.6m103-31.1q.5-.2.8 0 .2.3-.6.3t-.2-.3m27.3-.9q-.9-.2-2.1-1.4c-1.2-1.2-1.3-1.6-1.3-4.3 0-2.8.1-3 1.4-4.4l1.4-1.4 26.4-.1c18-.1 26.8 0 27.9.3 2.5.7 3.3 2.2 3.3 5.6s-.8 4.9-3.3 5.6c-1.5.4-51.6.5-53.7.1M18 149.7q-.8-1 .2-.1l.7.7q0 .5-.9-.6m156.3-23c0-10.7 0-15 .1-9.6zM27.4 141.5h1.7q.5.1-1 .2-1.4 0-.7-.2m133.2-20.1v-10.3zm3.4.8a912.8 912.8 0 0 1 0 0m89.3-12.5q0-1 .2-.5v1.3q-.2.4-.2-.8m-36-2-.8-1 1 .9q.8.7.9 1 0 .5-1.1-.9m-4.7-4.7-.9-1 1 .8q1.4 1.1.8 1.1zm13-1.5q-.8-1 .2-.2 1.1 1 .6 1zm15.6-5.1q0-.7.3-.3 0 .5 0 .8-.3.3-.3-.5m-45.8-.2-12-.2 11.9-.1c7.5 0 12 0 12.1.3l.2.3zm-52-.9q.2-.3.7-.2.8.6-.3.5-.5 0-.4-.3m107.7-2q0-.6.3-.2v.8q-.3.3-.3-.5m-10.3-1.6q0-1.2.3-.5v1.2q-.3.4-.3-.7m10-7.1q0-2.4.2-1.4v2.8q-.2 1-.2-1.4m-10-6.5q0-.8.2-.5.3.6 0 1-.1.5-.2-.5m10.3-2q0-.6.3-.2v.8q-.3.3-.3-.5m-9.9-3q0-.6.3-.2 0 .6 0 .8-.3.3-.3-.5M10 72.3q0-1 .2-.5v1q-.2.5-.2-.5m241.6 0q0-1 .2-.5v1q-.2.5-.2-.5M0 69.4q0-.7.3-.3v.9q-.3 0-.3-.6m22 0q0-.7.2-.3v.9q-.3 0-.2-.6M6.2 40.2a602.5 602.5 0 0 1 0 0m9.9-.6a620 620 0 0 1 0 0m106.9 7L33.4 44h-3.7V27.8c0-15 0-16.1.8-16.8.7-.6 5.9-.7 70.4-.6l69.6.1 2.1 1.2c1.2.6 11.4 9 22.8 18.8 16.5 14 21 17.8 22.6 18.3 1.8.5 1.7.6-3.7.5-3 0-44.2-1.2-91.3-2.7M19 45.1q0-1.2.2-.7v1.5q-.2.5-.2-.8M223 38h1q.5.2-.4.2t-.6-.2m17.4-2.6h1.3q.4.2-.7.2t-.6-.2M11.6 9.7q0-.1.8-.7 1-.8.1.1-.8 1.2-.9.6M28.7.1h.8q.3.3-.5.3t-.3-.3M169 .1h.8q.2.3-.6.3t-.2-.3" style="display:inline;fill:#68bb44;stroke-width:.429915"/><path d="M20.9 151.4q-3.1-1.6-4.1-4-.5-1.4-.5-22.2v-20.9l5-15.1 5-15.2-3.2-11.7-3.6-13c-.2-.8-.4-8.3-.6-16.8L18.7 17l-1.3 2.6-1.3 2.5-.1 16.6-.1 16.5 1.2 1.7a25 25 0 0 1 5 15.5c0 7.4-2.4 13-7.8 18.7l-3.1 3.3L8 91a25.6 25.6 0 0 1-3.4-32.9l1.8-2.7V38.7c0-16.2 0-16.8 1-20.1C10 10 16.4 3.7 25.2 1 27.6.3 31 .2 99 .2h71.4l3.1 1c1.7.6 4.3 1.8 5.6 2.7 1.3.8 11 9 21.6 18C219 37.5 220 38.3 221.6 38.3c2 0 12.4-1.5 15.3-2.1q7.2-1.8 9.9 2.6c1.5 2.5 1.5 4 .2 7.3-.2.5 0 .8 1.4 1.2q3.6 1.1 5 4.2c1.3 3.2 0 6.9-3 8.7l-1.8 1 1.6 3c1.7 3.4 1.8 4.1 1 14.3-.6 7.2-.3 13.8 1.1 23.5 1.1 7.3 1.1 9.2.1 11-1 2.1-2.3 2.7-9.3 4.8-7.7 2.3-8.2 2.2-13.7-1.3a76 76 0 0 1-20.5-18l-1.9-2.6h-23.3l-4.8 5.8-4.8 5.9v39.1l-1 1.8c-1.6 2.7-3.4 3.4-9.2 3.6-8.7.4-11.5-.5-13.3-4.2-1-1.9-1-2.3-1-14.8v-13l-4.2 12.4c-2.3 6.8-4.6 12.7-5 13.3-1.8 2-3.9 2.5-10.3 2.5-6.7 0-8-.3-10-2.7a7 7 0 0 1-1.7-6c.1-.7 3.3-10.7 7-22.2l6.6-21.5c0-.3-7-.5-24.2-.4H83.6l-4.7 6.7-5.5 7.9-.8 1.2 5 13.7c2.6 7.5 5 14.2 5.1 14.8.4 1.8-.5 4.6-2 6.2-2 2-4.2 2.4-11 2.3-5.3-.2-6-.3-7.5-1.2-.9-.6-2-1.7-2.4-2.6l-7-18.3-6.2-17-3.3 1.6-3.1 1.7L40 130l-.2 17.4-1.3 1.6c-2 2.7-3.8 3.3-10.3 3.3-4.6 0-6-.2-7.3-.8m9.1-27.6.1-17.8 20.5-10.5 20.5-10.4h78.4l5.4 8.2 5.5 8.2v40h3.9V103l7.1-8.7 7.2-8.8h33.7l2.7 4a68 68 0 0 0 21 19.4c1 .3 6.9-1.5 6.9-2.1l-1-6.5a140.8 140.8 0 0 1-.5-27.9l.5-3-3.8-6-3.8-6 2.2-1.2c1.1-.5 2.1-1.1 2.1-1.3s-9.8-3.2-20.2-6.2c-2.2-.6-4.3-2.3-23-18.3a478 478 0 0 0-22.8-18.8l-2.1-1.2h-69.6c-65-.2-69.7-.1-70.5.5s-.8 1.6-.6 19.3v18.5l3.7 12.8L37 74.3 31.9 90l-5.3 15.6V142l1.7-.1 1.6-.1zm41.8 13.4-4.7-13.8-4.8-14c0-.3 1.9-3.1 4.1-6.4l4.1-6c0-.5-13.8 6.7-14 7.2-.1.3 2.3 7.4 5.4 15.8l6.1 16.4c.4 1 .7 1.2 2.1 1.2q1.6 0 1.7-.4m67-15.4 6.3-19.4 1.1-3.6-1.1-2q-1-1.6-1.5-1.5c-.2.2-3.3 9.8-7 21.3l-6.6 21h3.6zM12.3 73.4c.3-3.2-.4-7.2-1.1-6.5-1.2 1.2-1.3 8.7-.2 10.5.5 1 1.1-.8 1.3-4" style="display:inline;fill:#414042;stroke-width:.429915"/></svg>