<svg xmlns="http://www.w3.org/2000/svg" width="94.2" height="100" viewBox="0 0 94.2 100"><path d="M16.9 75.7c-1-.4-1.1-.8-1.1-3 0-3.2.3-3.4 4.9-3.3l3.1.1.5.6c.5.5.5.7.5 2.5l-.2 2.4c-.4.8-1.4 1-4.3 1q-2.9 0-3.4-.3m16 .1c-1-.4-1.2-1-1.2-3.1 0-2 0-2.1.6-2.6l.5-.6h22l22.5.1c1 .4 1.1.9 1.1 3 0 2.3-.2 2.8-1.2 3.2-.8.2-43.7.3-44.3 0m-16-17.7c-1-.4-1.1-.8-1.1-3 0-3.2.3-3.4 4.9-3.3l3.1.1.5.6c.5.5.5.7.5 2.5l-.2 2.4c-.4.8-1.4 1-4.3 1q-2.9 0-3.4-.3m16 .1c-1-.4-1.2-1-1.2-3.1 0-2 0-2.1.6-2.6l.5-.6h22l22.5.1c1 .4 1.1.9 1.1 3 0 2.3-.2 2.8-1.2 3.2-.8.2-43.7.3-44.3 0M5.4 22.4c0-6 0-6.6 1-7.3.4-.3 1.4-.3 7.7-.3h7.3v2.5c0 2.4 0 2.5.5 3s.6.5 3 .5h2.3l.5-.6c.5-.6.5-.7.5-3v-2.4H66v2.5c.1 2.5.1 2.5.7 3s.7.5 2.8.5c3.1 0 3.3-.2 3.3-3.7v-2.3h7.3c6.3 0 7.3 0 7.7.3 1 .7 1 1.3 1 7.3V28H5.4Z" style="display:inline;fill:#66ba44;stroke-width:.2"/><path d="M5.8 99.7A8 8 0 0 1 .3 94C0 93 0 88.6 0 54l.1-39 .8-1.4Q2 11 4.6 9.9l1.1-.6h7.8l7.9-.1V5c.1-5.1 0-5 3-5 3.7-.2 3.8 0 3.8 5.3v3.8H66V5.7l.2-4.3c.3-1.1 1-1.4 3.2-1.4q2.9 0 3.2 1.1l.2 4.3v3.8h7.8l7.9.1 1.1.6a8 8 0 0 1 4.4 5.6c.2.9.2 11.6.2 39.8-.1 36.4-.1 38.7-.5 39.5a8 8 0 0 1-4.7 4.7c-.9.4-3.1.4-41.5.4-35.3 0-40.7 0-41.7-.2M87.6 94c1.3-.7 1.2 1.4 1.2-30.8V34H5.4v29.3c0 25.8 0 29.4.3 29.9.7 1.3-2.5 1.2 41.4 1.2 35.3 0 40 0 40.5-.3m1.2-71.7c0-6 0-6.6-1-7.3-.4-.3-1.4-.3-7.7-.3h-7.3v2.3c0 3.5-.2 3.7-3.3 3.7-2.1 0-2.3 0-2.8-.5s-.6-.5-.7-3v-2.5H28.2v2.4c0 2.3 0 2.4-.5 3l-.5.6h-2.4c-2.3 0-2.4 0-2.9-.5s-.5-.6-.5-3v-2.5h-7.3c-6.3 0-7.3 0-7.7.3-1 .7-1 1.3-1 7.3V28h83.4Z" style="display:inline;fill:#414042;stroke-width:.2"/></svg>