<svg xmlns="http://www.w3.org/2000/svg" width="63.7" height="58" viewBox="0 0 63.7 58"><path d="M31 57.9h.3-.2q-.2 0 0 0m1.4 0h.3-.2q-.2 0 0 0m-3.6-4.7-.3-.4zl.4.4zm6 0 .3-.3zl-.3.2zM24 50.8q0-.2.1 0v.2zm15.3 0q0-.2.1 0v.2zm-12-.3q0-.3.2 0v.1zm8.7 0q0-.3 0 0v.1zm-10.2-3.9c.2 0 18.3-24.2 18.4-24.4l.2.1c.4.8 1 2.4 1.3 3.5s.3 1.2.3 7l.1 5.7 2.2 2.2 2.3 2.5v1.6l-.1 1.6-.3.3H26m-12.2-4.2.6-.5zl-.5.6Zm-4.2-.1v-.1q.2.1 0 .2zm44.5 0q0-.3.1-.1v.2zM51 38.5l-.8-.8zl.8.8zm-38.1 0 .8-.8zl-.8.8q0-.1.7-.8m4.2.5.3-.3-.2.3-.3.2zm.6-5.8v-2.5zm31.8-5.6v-.2.3zm-35.2-.1v-.2.3zm3.4-.2q0-.2.1 0v.1zm35.4-2q-.2-.1-.3-1.5A17 17 0 0 0 42.6 10c-.2-.3-.2-.3 0-.9l1-2.1q.5 0 2.6 1.1c5.6 3.4 9.4 9.5 9.9 16 0 1 0 1-.2 1.2-.4.3-2.6.3-2.9 0m-52.9 0A28.2 28.2 0 0 1 17.1 0a9 9 0 0 1 1.2 2.6c0 .2-.2.4-1.5 1L14.6 5A25 25 0 0 0 3.4 24l-.2 1.2c-.2.3-2.9.2-3 0m7.6 0c-.1-.4 0-2.4.3-3.6A21 21 0 0 1 19 7.3q1-.6 1.2-.1c.2.2 1 2.2 1 2.5s-.1.4-1.1 1A18 18 0 0 0 11 24l-.2 1.2H7.7m52.7 0-.2-1.7A25 25 0 0 0 46.7 3.7q-1.5-.7-1.4-1c0-.3.8-2.2 1-2.5l.4-.2A26 26 0 0 1 53 3.9a28.7 28.7 0 0 1 10.4 21.3 7 7 0 0 1-3 0m-39.2-5.8.2-.3zl-.3.2zm20.6-.7q-.2-.3 0 0 .4.2.2.2zm-19.5-.4.2-.2q.2-.3 0 0zm-4.1-.7.2-.2q.3-.2 0 0zm11.2-6 .3-.2q.2-.3 0 0zm2.2-1.1h.5-.5M36.3 9l-.2-.2zl.2.3zm-4.6-1.9h.3l-.2.1q-.2 0 0 0" style="display:inline;fill:#67ba44;stroke-width:.115942"/><path d="m31.1 58-.8-.3q-.7 0-1.8-.6a6 6 0 0 1-2-1.5 8 8 0 0 1-2.3-4.7l-.1-1h-6.6c-7.4 0-7.2 0-7.7-.7-.2-.4-.2-.6-.2-3.7V42l2.3-2.5 2.2-2.3v-5c.1-5.8.2-6.2 1-8.6a19 19 0 0 1 2.4-4.8c.9-1.3 3-3.3 4.2-4.2l3.4-1.8q.3 0 .5-.7c.6-2.2 2.4-4 4.6-4.5a6.5 6.5 0 0 1 7.7 4.3l.4.8a17.8 17.8 0 0 1 10.8 13c.3 1.3.3 1.7.4 6.4v5.1l2.2 2.3 2.3 2.5v3.6c0 3.6 0 3.8-.7 4.2-.4.3-.6.3-7 .3h-6.7l-.2 1q-.3 2.7-2.3 4.7a6 6 0 0 1-2 1.4q-1 .5-1.6.6c-.6.2-2 .3-2.4.2m2.3-3.8a5 5 0 0 0 2-1.8c.4-.7.8-1.7.8-2.2V50h-8.7v.2a5 5 0 0 0 1.4 3 4 4 0 0 0 4.5 1m17.2-7.8q.3-.1.2-1.6l-.1-1.6c0-.2-1.1-1.3-2.3-2.5l-2.2-2.2v-5.8c-.1-5.7-.1-5.8-.4-7a15 15 0 0 0-9.9-10.4L35 15v-.9q0-1.4-.8-2.4a3 3 0 0 0-4.6-.2q-.9 1-1 2.5v1l-1 .4c-4.3 1.3-8 4.9-9.3 9.2-.7 2-.7 2.3-.8 8.1v5.7c0 .1-1 1.2-2.2 2.3l-2.2 2.4-.1 1.8q0 1.6.2 1.6c.1.2 2 .2 18.6.2h18.5z" style="display:inline;fill:#414042;stroke-width:.115942"/></svg>