<svg xmlns="http://www.w3.org/2000/svg" width="126.4" height="96.2" viewBox="0 0 126.4 96.2"><g style="display:inline"><path d="M19.9 94.4v-1.8h73.3v1.8l.1 1.8H19.8Zm21.7-9.2v-1.7h73.3V87H41.6ZM22.9 39.8v-6.7h-1.4c-1.4-.1-1.4-.1-1.5-.7a18.5 18.5 0 0 1 13.5-16.2c2.2-.6 6.8-.8 8.4-.4q2.4.5 3.8 2l.9.9.8-1.1q3.2-4.3 7.7-3.9 3.5.3 5.9 3.7l1 1.3 1.2-1.3 2-1.6a6 6 0 0 1 7.2 1.1l.7.7-18.9 11L29.1 43l-6.2 3.5z" style="display:inline;fill:#66ba44;stroke-width:.192385"/><path d="M0 76.4v-1.8h19.8v-.5L18.5 62 17 50.3l1-1.7 1.1-1.6v-5.3c0-4.6 0-5.3-.2-5.3-.5 0-1.7-1.2-2-2-1-1.7-.2-6.3 1.7-10A22 22 0 0 1 44 12.9l2 .7 1-.9c2.4-1.7 4.3-2.4 7.2-2.4q4 0 7.2 2.5l.8.6 1-.5q2.3-1.2 4.7-1.2c1.9 0 2.9.3 4.5 1l1.3.7 2.2-3.7L78 5.8q0-.3-.8-1.5-.7-1.1-.8-1.7c-.2-.6.3-1.7.9-2 .3-.2 2.5-.2 8.5-.2h8l1.4.6c2 .7 3.1 1.5 7.2 5.2 6.6 5.8 7 6.3 7.3 8.9.1 1.4-.4 3.5-1.1 4.4-.9 1.1-1.6 1.3-5.2 1.3h-3.3l.2.6.1 2.7c0 2 0 2-.7 3.4q-.7 1.4-1.4 2.1l-.6.6.3 1.1a9 9 0 0 1-4.2 11q-.8.2-1 1a15 15 0 0 1-8.2 7.6q-1.2.3-1 .7L88 74.2l.1.4h38.1v3.5H0Zm34.2-2L31 58.5l-1.5 1-1.5 1v14.1h3.2c2.4 0 3.1 0 3.1-.2m4.6-1.1-1-14.3 3.5-2.5c3-2.2 3.6-2.8 2.9-2.8l-2.6-.7-2.3-.7-2.6 1.9Q34 56 34 56.4l3.7 18 .6.2h.5zm26.8 1-.4-7.3-.4-7-1.4-3.5-1.6-3.7q-.3 0-2 .5a26 26 0 0 1-7.7 1.3l-2.8.1-4 3-4.1 3v1c.2 1.2 1 12 1 12.6 0 .3.4.3 11.7.3 11 0 11.7 0 11.7-.3m5.1-7.4.7-7.5 2.6-5.6 2.7-5.5H79c3.9 0 6-.8 8.3-3q2-1.8 3-4.6c.2-.9.3-1 1.1-1.2a6 6 0 0 0 3.3-2.8c.5-1 .6-1.4.6-2.6 0-1.7-.2-2.2-1.5-4-1-1.1-1-1 .5-1.9 2.5-1.4 3.6-4.3 2.5-6.7q-.4-1-2-2.6L93 17h13.1l.2-.9q.3-1.6-.6-2.8l-4.6-4.2c-6.7-6-5.8-5.6-14-5.7h-6l.6 1 .5 1.3c0 .2-1.8 3.2-4 6.7L74.4 19l-1.3-1.4c-1.5-1.6-2.5-2.1-4-2.4q-3.2-.5-5.9 2.2L62 18.7l-1-1.3a8 8 0 0 0-6-3.7c-2.8-.3-5.6 1.1-7.6 3.9l-.8 1-.9-.7q-1.4-1.6-3.8-2.1c-1.6-.4-6.2-.2-8.4.4A18.5 18.5 0 0 0 20 32.4c.1.6.1.6 1.5.7h1.4v14.6l-1 1.7-1.1 1.7L22 62.8c1.3 11.6 1.3 11.7 1.7 11.7h.4V58.8l7.2-5.2 7.3-5.2 2.6.8c2.8 1 6.5 1.8 9 2 3.5.1 7.8-.8 11.6-2.5l1.6-.8.3.6 2.3 5.8 2.2 5.1.4 7.4.5 7.6q.1.3.5.2c.4 0 .4-.1 1-7.7m9.5 7.6c0-.2-3.8-16.3-4-16.7q-.1-.5-.8 1.3l-.7 1.6-.6 7-.5 7h3.3c1.8 0 3.3-.1 3.3-.2m4.3-.3-4-22.3-.9-.1c-1.4 0-1.4-.3 1.3 11l2.6 10.8q.2.9.6.9t.4-.3" style="display:inline;fill:#414042;stroke-width:.192385"/></g></svg>