<svg xmlns="http://www.w3.org/2000/svg" width="278.4" height="300" viewBox="0 0 278.4 300"><path d="m23 281.1.1-4.2h174l-86.8.1-86.8.2-.3 4-.2 4.1zm-7.6-19.4c-1-1-1-6.2-.9-64.7l.2-63.6L59.4 187l44.7 53.7.3-113.4.3-113.3.2 108c0 59.5 0 115.4-.3 124.4l-.4 16.3H60.3c-41.8 0-44 0-45-1.1M207.8 123c-3.9-2.3-5.2-6.2-3.5-10.5 2.4-6.3 10.1-7.6 14.7-2.3 3.4 3.9 2 10.8-2.7 13a10 10 0 0 1-8.5-.2m-15-19.5q-3.3-1.3-3.2-5.2c0-1.5.6-2.5 3-4.8 9-8.7 24-10.2 35.1-3.4q10.9 6.6 5.7 12-3.7 3.8-8.7-.4a19.4 19.4 0 0 0-24.7 0c-3 2.5-4.7 3-7.2 1.8m-15-15q-3.1-1.7-3.2-5.4c0-3 7.5-9.4 15.3-13.4a42 42 0 0 1 20.4-4.7c9.5-.4 15.6.7 22.7 4 7.5 3.3 16.1 10 16.9 13 .5 2-.7 5.4-2.2 6.3-2.6 1.4-5.1.8-8.5-2.1q-6.9-6-15.1-8.6a42 42 0 0 0-23.4 0 44 44 0 0 0-15 8.5c-3.7 3.1-5.4 3.6-7.9 2.4" style="display:inline;fill:#67ba44;stroke-width:.6"/><path d="M12.9 299C9.4 297.5 9 296 9 284.6c0-5.7-.2-10.3-.5-10.3-1.1 0-5.7-5.2-7-7.8l-1.2-2.7V138.9C.3 17.6.3 14 1.4 11.1c1.6-3.9 5.1-7.6 9-9.4L13.5.3h193.8l3.4 1.7c2 1 4.3 2.7 5.3 3.9 3.5 4.2 3.9 5.7 4.2 15.4l.3 9 5 1A64 64 0 0 1 275.7 77a64 64 0 0 1-54.6 81.5s-.2 23-.2 51.2c0 55.4 0 55-3.3 59.7-.9 1.4-2.5 3-3.6 3.8l-2 1.4-.1 10.1c0 8.5-.2 10.4-1 11.8-2.3 3.8 4.5 3.6-100.5 3.6-84 0-95.8-.1-97.4-1m184.5-17.9v-4.5l-87.1.1-87.2.2-.2 4.4-.2 4.3h174.7zm-92.8-34.6c.2-9 .4-64.9.4-124.2V14.4H60.6c-39.5 0-44.4.1-45.3 1s-.9 12.8-.9 123c0 112.9 0 122.3 1 123.3s3.1 1.1 44.9 1.1h44zm-22.8-71c-3.3-1.4-3.8-3.3-3.8-13.3 0-7.8.1-9.1 1.2-10.9q1.8-3.2 6.4-3.1c1.6 0 2.6.5 4.2 2l2 2v10c0 10.7-.2 11.6-3.6 13.3q-3 1.6-6.4 0m-50-51.5a8 8 0 0 1-2.8-3.4c-.5-1.5-.7-9.3-.8-26.9 0-26.9 0-27.4 3.3-30 1.6-1.3 1.9-1.3 28.3-1.3h26.7l2 2 2.1 2v27.3c0 29.9.1 28.9-3.6 30.8-1.5.8-5.8.9-27.5.9H33.8Zm45-30.4V76.2H42.6V111h34.2zm128.3 168.3 1.3-1V158.4l-1.4-.3-4.9-1a65 65 0 0 1-45.3-37c-4.1-9.5-5.1-14.6-5-25.9 0-8.7.2-10.6 1.6-15.7a66 66 0 0 1 53.9-47.9c1 0 1.1-.6 1.1-7 0-5.7-.2-7.2-1-8.1-1-1-3-1.1-43.8-1.1h-42.8v248.4h42.5c37.4 0 42.6-.1 43.8-1m-71.7-86.5c-3.2-1.5-3.8-3.7-3.8-13.4 0-9.4.5-11.3 3.6-12.9a7 7 0 0 1 10.2 4.4c.8 3 .7 15.5-.2 18s-4 5-6.3 4.9c-.9 0-2.5-.5-3.5-1m91.9-33.2a47 47 0 0 0 24.1-14 48.7 48.7 0 0 0 2.7-64.8 54 54 0 0 0-26.5-16.9 50 50 0 0 0-59 32.8c-1.8 5.4-1.9 6-1.9 14.9 0 8 .2 9.9 1.4 13.8 6 19 21.5 32.4 41.2 35.4 4.7.7 12 .2 18-1.2" style="display:inline;fill:#414042;stroke-width:.6"/></svg>