<svg xmlns="http://www.w3.org/2000/svg" width="752.2" height="590.4" viewBox="0 0 752.2 590.4"><path d="M309.7 451.4c18-.2 47.5-.2 65.5 0 18 .1 3.3.3-32.8.3s-50.8-.2-32.7-.3M98.5 377.8c.6-1.6 1.2-11 1.5-20.9s.8-18 1.1-18 3.8 1.4 7.9 3c14 6 37.7 12.3 45.7 12.3 2 0 3.5.5 3.5 1 0 .9-36.5 16.2-58.3 24.6-2 .7-2.2.4-1.4-2m218-88.3c15.6-17.6 29.7-47 35.5-73.8 1.3-6 2.5-11 2.7-11.1.2-.2 40.2-.2 88.9 0l88.5.3-105.2 42.5a9110 9110 0 0 0-110 45l-5 2.4zm-222-33-30.1-30.4 30.4 30.1 30.4 30.4c0 .9-2.8-1.8-30.7-30m67.3 10c0-.1 20.8-21 46.3-46.3l46.4-46-46 46.3c-42.9 43-46.7 46.9-46.7 46M95.6 153a1133 1133 0 0 1 30.7-30.1c.4 0-13 13.6-29.5 30.1A1133 1133 0 0 1 66.1 183c-.3 0 13-13.5 29.5-30m309.2 18.6c26.2-.2 68.7-.2 94.5 0s4.3.3-47.6.3c-52 0-73-.1-46.9-.3" style="fill:#67ba44;stroke-width:1.18081"/><path d="M68 588.9c-1.9-1.4-2.6-9.6-7-80.2L56.1 430l3.3-16.4a314 314 0 0 0 3.2-18c0-1-2 1.6-4.4 5.6-13.7 22.4-14.8 22.7-25 6.8-26-40-29.5-70.8-10.3-91.3l5.4-5.8v-36.7L23 265C6.4 236-2.3 196 1 163.5 3.6 137.8 8 122 19 99.8A216 216 0 0 1 33.2 75c9.3-13.2 28-32 40.9-41.1C108.7 9.3 154.3-3.1 194.2 1c24 2.5 41.5 7.5 62.6 17.9a177 177 0 0 1 98.6 147.8v5.6l98.3.3 98.3.3 5.3 2.6c3 1.5 25 20 49 41.2 24 21.1 44 38.7 44.5 39l43.1 13.5c23.3 7.1 44.2 14 46.5 15.1a22 22 0 0 1 7.9 30.7c-2.8 4.2-8.1 8.7-11.8 10-.5.1.7 3.2 2.6 6.7q3.6 6.5 3.6 11.7c0 4.5-26.1 121-29.7 132.4a32 32 0 0 1-23.5 20.6c-6.4 1.2-31.5-1.5-37-4-9.5-4.2-12-8-31.9-51-10.3-22.4-19.2-41-19.7-41.6-.6-.8-36.3 4.5-37.2 5.5l-12 17.6c-11.7 17.3-11.8 17.5-10.8 22.5 3.3 16.1 24.7 137 24.7 139.3 0 5.4-1 5.6-32 5.6-29.1 0-29.4 0-31-2.7-1-1.4-6.4-16.9-12-34.3a418 418 0 0 0-10.8-31.1c-.2.2-1.2 15-2.2 32.8-1.4 28-2 32.5-3.7 33.8-2.9 2.1-53.4 2.1-56.3 0-1.7-1.3-2.5-9.8-6-67-2.4-36-4.2-66.7-4.2-68.1V451H277l-51.7-14.4c-28.4-8-51.9-14.2-52.1-13.9s4.8 37.4 11.3 82.5c11.4 78.8 11.8 82 9.7 83.5-1.7 1.2-8.6 1.6-30.4 1.6-16 0-29-.5-30.3-1.1s-3-4.3-4.3-9.2c-2-7.3-2.3-7.7-3-4.5-.4 2-.8 5.6-.9 8q0 4.4-2.4 5.6c-3.6 1.9-52.2 1.6-54.9-.3m92.6-29.7c0-2.3-14-98.4-14.9-102.2-.7-2.8-1-2.6-7.6 4.7-6.3 7-7 8.2-7 13 0 3.4 4.2 19.2 11.8 44.3l12.4 40.4c.7 2 5.3 1.9 5.3-.2m289.1-69.6c2.4-48.2 3.7-66 4.8-67.4 1.4-1.6 5.7-1.8 31.5-1.8h30l16-21.2a368 368 0 0 1 17.4-22.2c2.1-1.3 67-12 68.7-11.4.8.3 11.7 22.5 24.2 49.4 25.5 54.5 22.4 50.2 35.6 50.2 5.6 0 5.7 0 6.9-4.4a2797 2797 0 0 0 26.7-115.7c-.4-1-5-7.8-10.1-15.1a73 73 0 0 1-9.4-15.7q0-2.4 4.8-5.3c2.6-1.6 4.4-3.2 3.8-3.5-.5-.3-14.8-4.6-31.7-9.6s-32.3-10.3-34.2-11.7-21.9-19-44.3-39l-43.3-38.8c-2.4-2.2-5.6-2.3-97.3-2.2-52.2.1-95 .3-95.1.4-.2.2-1.4 5.2-2.7 11a179 179 0 0 1-138 136.6c-9.8 2.2-15.1 2.5-36.9 2.5-22 0-26.8-.3-36-2.5-13-3.1-22.5-6.2-32.1-10.2-4-1.7-7.7-3.1-8-3.1s-.6 6.4-.6 14.3c0 12.7-.8 17.9-6.6 46.3l-6.5 32 3.9 61.7c2 33.9 4 61.4 4.2 61.2s1.5-21.3 2.7-46.8c1.3-25.6 2.6-47.6 2.9-48.9.6-2.5 56.5-68.7 59.7-70.6 1.4-.8 18 3.3 61.8 15.6l59.9 16.7h152.2l1 2.6c.7 1.5 2.8 30 4.8 63.5 3.7 61.6 5 77.7 5.7 71.8.2-1.8 1.9-32.7 3.6-68.7m80 68.6-9.5-52.8-9.6-52.3c-.6-1.7-2.1-2-10.7-2-9.9 0-10 0-9.2 2.6l31.4 96.3c3 9 4 10.9 6 10.9 1.8 0 2.2-.6 1.7-2.7M209 322.5a148 148 0 0 0 112.1-181.6 149 149 0 0 0-96.3-103 153 153 0 0 0-91.3-.7c-31.6 10-60 31.4-78.3 59a140 140 0 0 0-24.5 81.5c0 40.2 13.5 73.7 41.2 102.5 23.6 24.5 50 38.2 84.6 44 12.7 2.2 39.2 1.3 52.5-1.7m-72.6-29.3c-5.2-1.7-9.9-5.9-39.9-35.7s-34.2-34.4-36.3-40q-4.2-11.6-.4-23.3c1.7-5.3 7.3-11.3 54.6-58.8 29-29.1 54.6-54 57-55.2 8.2-4.2 12.9-4.5 46-2.9 27.5 1.4 32.3 2 37.3 4.1 8.9 4 15.5 11.5 18.2 20.4 1.2 4.4 3.3 38.7 3.5 58.7.2 11.8-.1 13.7-2.9 19.3-2.4 4.9-13.8 17-54.7 57.7-35.6 35.5-53.4 52.4-57 54.2-7 3.5-17.7 4.1-25.4 1.5m25-26.2c13.3-11.8 93.1-92.3 94.8-95.6 1-2 1-9.5 0-32.4-1.6-33-2.1-35.3-9.4-38.8-5-2.4-59.2-5.4-63.9-3.5A1250 1250 0 0 0 129 149l-51 51.2V212l31.5 31.6 31.7 31.6h5.5c5.3 0 6.2-.5 14.8-8.1m-35-26.7-1.6-3-2.8 2.6c-2.5 2.3-2.7 2.4-3.5.4q-.7-2 1.2-3.2 3.5-2 .5-6.8c-1.3-2.1-1.6-2.2-3.5-.4-1.2 1-3 1.5-4 1-1.8-.6-1.8-1 .6-3.6 2.7-2.8 2.7-3 .7-6-1.5-2.3-1.7-3.4-.7-4.5q1.4-1.6 3.6 1.6l2.2 3 3-2.8c2.8-2.6 2.8-3 1.1-5.6-1-1.5-1.5-3.7-1-4.8.6-1.8 1-1.6 3.4 1.3s2.8 3.1 4.2 1.4q1.6-2.2 3.2-.6c1.4 1.2 1.3 1.8-.7 4-2.5 2.6-2.5 2.6-.2 5.4 2 2.4 2.5 2.6 4.2 1.2 3-2.5 4.8.2 2 2.8-2.4 2.1-2.4 2.2-.1 5.4 1.9 2.7 2 3.5.7 4.6s-2 .6-3.7-1.8l-2-3.1-3 3c-2.8 2.8-2.8 3-1 6 2 2.8 1.7 5.4-.4 5.4-.5 0-1.6-1.3-2.5-3m3-17.8-2.1-3.2-3 3c-3 3-3 3.1-1 6.3l2.1 3.1 3-3c3-3 3-3 1-6.2m22.3-7c-2-2.8-2.2-2.9-4.2-1.1-3.3 3-5.3.8-2.2-2.5 2.4-2.6 2.4-2.8.5-5.8-2-3-2.2-3-4.3-1-1.7 1.5-2.6 1.6-3.6.6s-.8-2 .8-3.8c2-2 2-2.7.6-5.3-2.2-4.2.2-6.6 2.8-2.8l2 2.7 2.9-2.8c2.8-2.7 2.9-3 1-5.7-1.4-2.2-1.5-3.2-.4-4.2q1.4-1.6 3.2 1.3c1.7 2.5 2 2.6 3.9.9 1.7-1.6 2.2-1.6 3.4-.2 1 1.3 1 2-.4 3.1-2.3 1.8-2.3 3.5 0 6.4 1.3 1.8 2 2 3.4.8 2.8-2.3 4.7-.3 2.3 2.4-2 2.2-2 2.5-.1 5.7 1.8 3 1.8 3.5.2 4.8q-1.6 1.3-1.8.4c0-.5-.8-2-1.7-3.3-1.7-2.2-1.8-2.2-4.7.5-2.8 2.7-2.8 2.8-1 6.1 1.5 2.5 1.7 3.7.7 4.7s-1.8.5-3.3-1.8m2.4-12.4c1.9-2 2-2.8.6-5.3-2-3.6-2.5-3.7-5.7-.3-2.3 2.6-2.4 3-.7 5.4 2.2 3.2 3 3.2 5.8.2m23-12c-2-4-2.1-4-4.6-1.7-3.5 3.2-5.6 1-2.4-2.3 2.5-2.7 2.6-3 .6-5.9s-2.1-3-4.2-1.1c-3.4 3-5.5.9-2.4-2.4 2.5-2.6 2.5-2.8.5-5.8-1.5-2.3-1.6-3.5-.7-4.5q1.3-1.5 3.7 1.6l2.3 2.8 2.7-2.7c2.7-2.6 2.7-2.8.8-6.1-1.7-3-1.8-3.7-.3-4.8q1.6-1.3 1.7-.4c0 .6.8 2 1.8 3.3 1.6 2.1 1.8 2.2 4 .2 3-2.7 4.6-.2 1.8 2.9-2 2.1-2 2.4 0 5.3 1.9 3 2.1 3 4.1 1.1 3-2.6 4.5 0 1.8 3-2 2.2-2 2.4 0 5.4 2.9 4.4.5 6.7-2.8 2.7l-2.3-2.8-2.8 2.7c-2.6 2.6-2.6 2.8-.7 6.1 1.6 2.9 1.7 3.7.4 4.8s-2 .7-3-1.4m2.1-13.1c2.5-2.6 2.5-2.7.3-5.6l-2.2-3-3 2.9c-2.8 2.6-2.8 3-1.1 5.6 2.3 3.4 2.9 3.4 6 .1m26.5-13a38 38 0 0 1-17-15.6c-2.8-6.4-2.8-18.5.1-24.8 2.7-5.9 10-12.9 15.7-15.3a37 37 0 0 1 21.2-.5c6.5 2 13.9 8.7 17.1 15.7a29.3 29.3 0 0 1-26.7 41.8c-3.6 0-8.3-.6-10.4-1.3m15-19.1c3.8-2 4.8-4 4.8-9.2 0-11.3-16.8-12.6-19.5-1.6-1 3.8 1.6 9 5.4 11 3.8 1.9 5.3 1.9 9.3-.2" style="fill:#414042;stroke-width:1.18081"/></svg>