<svg xmlns="http://www.w3.org/2000/svg" width="126.4" height="102.1" viewBox="0 0 126.4 102.1"><path d="M110.6 81c-1.8-.1-1.8-.1-1.8-.7l-.1-3.5-.2-3-1.1 3.5-1.2 3.5h-3.7l2.7-9q2.6-8.9 2.6-9.8c0-1 0-1-1.8-3.1-1.7-2.1-1.7-2.2-1.9-1.6l-2 12-1.7 11.6H55v-1l1.7-24.5.1-1.5 12.5.1 12.5.2 6.2-1.8 13.7-3.7 9.3 10.7c.2.3.4 3 .8 10.9l.5 10.5.7.1q.9.1 0 .1zm-13.5-.6 4-27.2-.2-.6q-.2-.3-6.7 1.6l-9 2.4-2.5.6H71.5c-10.9 0-11.3 0-11.3.4l-1.4 22.6v.5H78c15.1 0 19.1 0 19.2-.3m-61.8 0 2-12c1.2-6.5 2.1-12 2-12.2 0-.3-15.1-23-15.7-23.7a42 42 0 0 0-8.4 1.1q-8 1.3-9 1.2-.8 0-1.6-.6C3.4 33.5.7 30.6.4 29.7A5 5 0 0 1 .8 26L15.2 6.3c0-.2-5.6-3.8-6.7-4.2q-.7-.4-.3-1.3c.2-.4.3-.4 9.8-.4 9.2 0 9.6 0 9.8.4.4.7.2 1.3-1 3l-1 1.6L27 5c1.2-.5 1.5-.5 5.6-.5s4.3 0 4.5.4l.2.7-1.9 2.8q-1.7 2.3-1.7 2.6l2.7.7 2.6.7h39.7l39.7.2 1 .4a7 7 0 0 1 3.2 3c.4 1 .4 1 .4 10v9l1 .8c2.5 2.2 2.8 6.2.7 10.7a30 30 0 0 1-3 5.2 31 31 0 0 1-3.6-6q-2.6-6 .6-9.4l.9-1V17.6l-.6-.6c-.5-.5-2-1-2.2-.8v27.5l1 5.5 1 5.5-.8 12.7-.9 13.1c0 .4 0 .5-1.7.5h-1.8v-1l.8-12.7.7-11.8-1-5.2-1-5.1V16.3H40.4l-8-1.8-14.2-3.3 2.3-3.6 2.5-4-2-.1q-1.9 0-2.5-.2-1-.2.7.9l1.3.8q.4.2-8.1 11.7L4 28.4q.1.4 1.3 1.6 1.3 1.3 1.8 1.2c.2 0 4.4-.6 9.2-1.5l8.8-1.4L33.7 41l8.6 12.8h10.2v.9l1.1 24 .1 2h-3.4l-.1-.8-.8-14.4-2.6 7.6-2.5 7.7h-4.5c-4.3 0-4.5 0-4.5-.4m9-11L48 57.6c0-.3-.3-.3-2.6-.3q-2.6 0-2.6.2c-.2.4-4 22.4-4 22.8q0 .3.9.2h.8zm78.2-26.2c.6-1.9.6-2.8 0-4l-.7-.8-.5.9c-.4.7-.4 1-.4 2.5.1 1.5.7 3.3 1 3zM31.1 8.3q.3-.4-.7-.3c-1 0-3.8 1-3.5 1.2l1.5.5 1.3.3.6-.7z" style="display:inline;fill:#8c8c8c;fill-opacity:1;stroke-width:.204212"/></svg>