<svg xmlns="http://www.w3.org/2000/svg" width="128.3" height="102.7" viewBox="0 0 128.3 102.7"><path d="m35 80.5 2.2-12.2 2.2-12.1-2-2.9-2.5-3.2c-.3-.3-5.7-1.4-6.9-1.4-.3 0-1 1.3-3.7 7.1-3.6 7.9-4 8.4-5.7 8.9l-3.3.2c-2.2 0-2.3 0-3.1-.5-1.6-1-1.7-1.2-4.4-13L5.3 40q.1-.6.8-2 .7-1.2.6-1.4l-1-.7q-1-.5-1.4-1.2c-.7-1.3-.4-3 .7-3.7.2-.2 3.8-1.4 7.9-2.7l7.4-2.3 7.3-6.4q7.3-6.4 8.4-7l1-.5h30.7l40.7.2 10.2.1 1 .6q2 1 3 3l.5 1v9l.1 9.1 1.3 1.3 1.8 2.3c1 2 .2 5.7-1.8 9.3a16 16 0 0 1-2.5 3.7 17 17 0 0 1-2.9-4q-2-3.7-2-6.7c0-1.6.1-2 .6-3l1.3-2 .7-.7V17.5l-.7-.7q-.8-.6-1.5-.7l-.9-.1v28.3l1 5 1 5.2-.7 13.1-.7 13.1h-3.6v-1.2l.9-12.9.7-11.7-1-5-1-5.2V15.8H37.3L35 18 22.6 29.3q-.4.4-6.8 2.3l-6.3 2 1.3.8q1.2.6 1.4 1c.1.1-2.2 3.6-3 4.6-.4.4-.4.5 2 10.8L14 61.4c.2.2 2 0 3.4-.1.6-.1.7-.4 4.4-8.2l3.8-8.2c.2-.2 10.8 1.6 11 1.9l2.7 3.7L42 54h10.2v.8l1.4 25.9h-3.7v-.9l-.3-6.6c-.2-8.9 0-8.9-3-.1L44 80.6h-1.8l-1.8.1 3.8-11.5L48 57.6h-5.3l-4 23-1.8.1q-1.8 0-2-.2m87.7-38q.7-2.3-.5-3.5l-.6-.7-.4.7c-.4.6-.5 1-.4 2.4q0 1.6.6 2.6l.4 1 .3-.6zM55 79.8l1.7-25.6c0-.1 5.5-.2 12.3-.2h12.3l7.4-2 12.8-3.5c.1 0 2.4 2.5 5 5.6l4.8 5.6.4 8.7.5 10.5.2 1.8h-1.8c-1.7 0-1.8 0-1.8-.5l-.1-3.4-.2-3-1.1 3.5-1.1 3.4h-3.6l2.7-8.8c2-6.4 2.6-9 2.6-9.8 0-1.2 0-1-3.5-5.1q-.1-.2-.3-.1l-3.8 23.7-1.7.1h-1.6v-.6l2-13.8a68 68 0 0 0 1.5-13.6c-.2-.3-1.5 0-9.2 2.2l-8.9 2.6H71.3c-10.6 0-11.1 0-11.1.4l-1.5 22.4c0 .4-.2.4-1.8.4H55z" style="fill:#8c8c8c;fill-opacity:1;stroke-width:.205348"/></svg>